# xmcd
#
# Track frame offsets: 
#        150
#        17482
#        32575
#        49990
#        65706
#        82306
#        98888
#        118070
#        133163
#        153262
#        170929
#        188495
#        204201
#        217805
#        232639
#        250195
#        263409
#        277495
#
# Disc length: 3856 seconds
#
# Revision: 1
# Processed by: cddbd v1.5.2PL0 Copyright (c) Steve Scherf et al.
# Submitted via: ExactAudioCopy v0.95b2
#
DISCID=fc0f0e12
DTITLE=The Rattles - The Greatest Hits [CD 2)
DYEAR=2001
DGENRE=Rock
TTITLE0=Sixteen Tons
TTITLE1=That'll Be The Day
TTITLE2=Running Bear
TTITLE3=American Woman
TTITLE4=Singing The Blues
TTITLE5=Natural Born Dancer
TTITLE6=He's So Fine
TTITLE7=Stagger Lee
TTITLE8=Young Love
TTITLE9=The Great Pretender
TTITLE10=Smoke Gets In Your Eyes
TTITLE11=Wake Up Little Susie
TTITLE12=Ninety Six Tears
TTITLE13=Medley - (A) Al Shook Up (B) Don't Be Cruel
TTITLE14=Medley - (A) Hey Baby (B) Walk Right In
TTITLE15=It Is Love
TTITLE16=Always Stay Your Friend
TTITLE17=Beautiful Dreamer
EXTD=YEAR: 2001
EXTT0=
EXTT1=
EXTT2=
EXTT3=
EXTT4=
EXTT5=
EXTT6=
EXTT7=
EXTT8=
EXTT9=
EXTT10=
EXTT11=
EXTT12=
EXTT13=
EXTT14=
EXTT15=
EXTT16=
EXTT17=
PLAYORDER=
